HIERARCHY
ROOT hip
{
  OFFSET 0 0 0
  CHANNELS 6 Xposition Yposition Zposition Zrotation Yrotation Xrotation
  JOINT abdomen
  {
    OFFSET 0 20.6881 -0.73152
    CHANNELS 3 Zrotation Xrotation Yrotation
    JOINT chest
    {
      OFFSET 0 11.7043 -0.48768
      CHANNELS 3 Zrotation Xrotation Yrotation
      JOINT neck
      {
        OFFSET 0 22.1894 -2.19456
        CHANNELS 3 Zrotation Xrotation Yrotation
        JOINT head
        {
          OFFSET -0.24384 7.07133 1.2192
          CHANNELS 3 Zrotation Xrotation Yrotation
          JOINT leftEye
          {
            OFFSET 4.14528 8.04674 8.04672
            CHANNELS 3 Zrotation Xrotation Yrotation
            End Site
            {
              OFFSET 1 0 0
            }
          }
          JOINT rightEye
          {
            OFFSET -3.6576 8.04674 8.04672
            CHANNELS 3 Zrotation Xrotation Yrotation
            End Site
            {
              OFFSET 1 0 0
            }
          }
        }
      }
      JOINT rCollar
      {
        OFFSET -2.68224 19.2634 -4.8768
        CHANNELS 3 Zrotation Xrotation Yrotation
        JOINT rShldr
        {
          OFFSET -8.77824 -1.95073 1.46304
          CHANNELS 3 Zrotation Xrotation Yrotation
          JOINT rForeArm
          {
            OFFSET -28.1742 -1.7115 0.48768
            CHANNELS 3 Zrotation Xrotation Yrotation
            JOINT rHand
            {
              OFFSET -22.5879 0.773209 7.07136
              CHANNELS 3 Zrotation Xrotation Yrotation
              JOINT rThumb1
              {
                OFFSET -1.2192 -0.487915 3.41376
                CHANNELS 3 Zrotation Xrotation Yrotation
                JOINT rThumb2
                {
                  OFFSET -3.37035 -0.52449 3.41376
                  CHANNELS 3 Zrotation Xrotation Yrotation
                  End Site
                  {
                    OFFSET -1.78271 -1.18214 1.43049
                  }
                }
              }
              JOINT rIndex1
              {
                OFFSET -7.75947 0.938293 5.60832
                CHANNELS 3 Zrotation Xrotation Yrotation
                JOINT rIndex2
                {
                  OFFSET -2.54057 -0.884171 1.56538
                  CHANNELS 3 Zrotation Xrotation Yrotation
                  End Site
                  {
                    OFFSET -1.62519 -0.234802 1.16502
                  }
                }
              }
              JOINT rMid1
              {
                OFFSET -8.24714 1.18213 3.41376
                CHANNELS 3 Zrotation Xrotation Yrotation
                JOINT rMid2
                {
                  OFFSET -3.10165 -0.590103 1.0647
                  CHANNELS 3 Zrotation Xrotation Yrotation
                  End Site
                  {
                    OFFSET -2.48547 -0.328903 0.83742
                  }
                }
              }
              JOINT rRing1
              {
                OFFSET -8.82822 0.546677 1.51678
                CHANNELS 3 Zrotation Xrotation Yrotation
                JOINT rRing2
                {
                  OFFSET -2.60934 -0.819778 -0.0198488
                  CHANNELS 3 Zrotation Xrotation Yrotation
                  End Site
                  {
                    OFFSET -2.33842 -0.294052 0.168128
                  }
                }
              }
              JOINT rPinky1
              {
                OFFSET -8.27202 -0.0477905 -0.4584
                CHANNELS 3 Zrotation Xrotation Yrotation
                JOINT rPinky2
                {
                  OFFSET -1.82734 -0.647385 -0.700984
                  CHANNELS 3 Zrotation Xrotation Yrotation
                  End Site
                  {
                    OFFSET -1.69225 -0.51767 -0.607171
                  }
                }
              }
            }
          }
        }
      }
      JOINT lCollar
      {
        OFFSET 2.68224 19.2634 -4.8768
        CHANNELS 3 Zrotation Xrotation Yrotation
        JOINT lShldr
        {
          OFFSET 8.77824 -1.95073 1.46304
          CHANNELS 3 Zrotation Xrotation Yrotation
          JOINT lForeArm
          {
            OFFSET 28.1742 -1.7115 0.48768
            CHANNELS 3 Zrotation Xrotation Yrotation
            JOINT lHand
            {
              OFFSET 22.5879 0.773209 7.07136
              CHANNELS 3 Zrotation Xrotation Yrotation
              JOINT lThumb1
              {
                OFFSET 1.2192 -0.487915 3.41376
                CHANNELS 3 Zrotation Xrotation Yrotation
                JOINT lThumb2
                {
                  OFFSET 3.37035 -0.52449 3.41376
                  CHANNELS 3 Zrotation Xrotation Yrotation
                  End Site
                  {
                    OFFSET 1.78271 -1.18214 1.43049
                  }
                }
              }
              JOINT lIndex1
              {
                OFFSET 7.75947 0.938293 5.60832
                CHANNELS 3 Zrotation Xrotation Yrotation
                JOINT lIndex2
                {
                  OFFSET 2.54057 -0.884171 1.56538
                  CHANNELS 3 Zrotation Xrotation Yrotation
                  End Site
                  {
                    OFFSET 1.62519 -0.234802 1.16502
                  }
                }
              }
              JOINT lMid1
              {
                OFFSET 8.24714 1.18213 3.41376
                CHANNELS 3 Zrotation Xrotation Yrotation
                JOINT lMid2
                {
                  OFFSET 3.10165 -0.590103 1.0647
                  CHANNELS 3 Zrotation Xrotation Yrotation
                  End Site
                  {
                    OFFSET 2.48547 -0.328903 0.83742
                  }
                }
              }
              JOINT lRing1
              {
                OFFSET 8.82822 0.546677 1.51678
                CHANNELS 3 Zrotation Xrotation Yrotation
                JOINT lRing2
                {
                  OFFSET 2.60934 -0.819778 -0.0198488
                  CHANNELS 3 Zrotation Xrotation Yrotation
                  End Site
                  {
                    OFFSET 2.33842 -0.294052 0.168128
                  }
                }
              }
              JOINT lPinky1
              {
                OFFSET 8.27202 -0.0477905 -0.4584
                CHANNELS 3 Zrotation Xrotation Yrotation
                JOINT lPinky2
                {
                  OFFSET 1.82734 -0.647385 -0.700984
                  CHANNELS 3 Zrotation Xrotation Yrotation
                  End Site
                  {
                    OFFSET 1.69225 -0.51767 -0.607171
                  }
                }
              }
            }
          }
        }
      }
    }
  }
  JOINT rButtock
  {
    OFFSET -8.77824 4.35084 1.2192
    CHANNELS 3 Zrotation Xrotation Yrotation
    JOINT rThigh
    {
      OFFSET 0 -1.70687 -2.19456
      CHANNELS 3 Zrotation Xrotation Yrotation
      JOINT rShin
      {
        OFFSET 0 -36.8199 0.73152
        CHANNELS 3 Zrotation Xrotation Yrotation
        JOINT rFoot
        {
          OFFSET 0.73152 -45.1104 -5.12064
          CHANNELS 3 Zrotation Xrotation Yrotation
          End Site
          {
            OFFSET -1.1221 -3.69964 12.103
          }
        }
      }
    }
  }
  JOINT lButtock
  {
    OFFSET 8.77824 4.35084 1.2192
    CHANNELS 3 Zrotation Xrotation Yrotation
    JOINT lThigh
    {
      OFFSET 0 -1.70687 -2.19456
      CHANNELS 3 Zrotation Xrotation Yrotation
      JOINT lShin
      {
        OFFSET 0 -36.8199 0.73152
        CHANNELS 3 Zrotation Xrotation Yrotation
        JOINT lFoot
        {
          OFFSET -0.73152 -45.1104 -5.12064
          CHANNELS 3 Zrotation Xrotation Yrotation
          End Site
          {
            OFFSET 1.1221 -3.69964 12.103
          }
        }
      }
    }
  }
}
MOTION
Frames:	4
Frame Time:	0.03333
75.1401907592843 -0.03043333524980664 -24.076743259312508 44.1280517578125 47.65052032470703 145.30242919921875 -159.20693969726562 -36.78975296020508 -150.5457000732422 144.94775390625 -49.51466369628906 -136.84300231933594 -69.46309661865234 -36.79342269897461 -175.5150146484375 32.06976318359375 -38.90494155883789 86.345947265625 14.19759750366211 -39.314212799072266 74.86611938476562 54.87051010131836 -29.45616912841797 77.58966827392578 49.61153793334961 24.80853271484375 131.7210693359375 78.79157257080078 -27.538305282592773 -30.25889778137207 46.96027374267578 37.22265625 -21.368236541748047 -18.687538146972656 20.433176040649414 -176.7882537841797 4.998215675354004 -27.38277816772461 -77.92150115966797 48.26650619506836 -22.11273193359375 -113.5467300415039 -114.96692657470703 -5.648980140686035 -3.72898006439209 -6.81350040435791 42.438560485839844 3.2425618171691895 -54.6096076965332 -7.686397552490234 -50.65904998779297 -28.98062515258789 35.88726043701172 37.715309143066406 -22.93239402770996 28.515100479125977 -121.5150146484375 178.71331787109375 16.98526954650879 -140.8888397216797 177.2515869140625 -66.68235778808594 -144.9332275390625 113.20392608642578 16.666915893554688 31.083229064941406 -83.61724090576172 56.776031494140625 70.35186004638672 -171.44924926757812 31.33112144470215 -163.75442504882812 123.0706558227539 87.500244140625 19.61760902404785 -143.86622619628906 21.81035804748535 133.02183532714844 35.12074279785156 41.33448028564453 40.670772552490234 157.45779418945312 -24.840755462646484 145.79087829589844 -101.13401794433594 14.31040096282959 101.35969543457031 -177.83160400390625 -61.187782287597656 162.06056213378906 -163.05813598632812 7.800860404968262 136.8388671875 -38.399139404296875 -43.94695281982422 34.45207595825195 -85.90998077392578 -35.033084869384766 121.23271179199219 139.2675323486328 -36.97140884399414 -168.3895263671875 -47.60755920410156 69.88204193115234 16.719331741333008 -11.669107437133789 -52.46770477294922 40.289913177490234 -142.93418884277344 -11.226054191589355 -5.820077896118164 179.69960021972656 51.64183044433594 88.13728332519531 -143.26206970214844 34.52913284301758 -29.19016456604004 -100.25596618652344 -24.947952270507812 39.02303695678711 -72.30410766601562 43.8347053527832 63.806915283203125 -16.341886520385742 -77.77204895019531 18.866039276123047 -133.81631469726562 55.73583984375 -15.593341827392578 1.1157888174057007 -20.479087829589844 119.37115478515625
76.64354549112514 0.011110276520590994 -24.413136452557556 44.94924545288086 48.429664611816406 146.57041931152344 -158.8036346435547 -37.173831939697266 -150.54354858398438 155.4382781982422 -47.7906608581543 -119.97767639160156 -68.77687072753906 -36.95628356933594 -174.7063446044922 32.36793899536133 -39.63543701171875 86.12295532226562 11.556148529052734 -36.43095397949219 72.40185546875 50.98432159423828 -29.548240661621094 77.4928207397461 50.703006744384766 25.13325309753418 132.64625549316406 78.79829406738281 -25.886486053466797 -31.196685791015625 45.341548919677734 38.97175979614258 -20.826292037963867 -17.854549407958984 19.693819046020508 -176.37722778320312 2.7589304447174072 -27.10487937927246 -76.14234924316406 48.85088348388672 -22.904640197753906 -114.05987548828125 -113.4365234375 -4.890799522399902 -3.611875534057617 -7.276947021484375 42.156341552734375 3.711428165435791 -55.20173263549805 -7.448448181152344 -51.30397415161133 -28.188312530517578 35.00418472290039 38.8886604309082 -24.4266300201416 27.620851516723633 -121.77919006347656 179.03378295898438 17.56791877746582 -142.46580505371094 176.6584930419922 -66.61589050292969 -146.3861846923828 114.19216918945312 16.615116119384766 31.105318069458008 -81.2457504272461 58.30354309082031 67.35465240478516 -170.99398803710938 31.813369750976562 -161.31417846679688 125.87621307373047 86.9736557006836 17.65821075439453 -142.07974243164062 22.74930191040039 132.2882537841797 35.43894577026367 41.289154052734375 41.02571487426758 158.22296142578125 -25.2713565826416 146.2296600341797 -102.8246078491211 14.624055862426758 101.53756713867188 -178.03152465820312 -60.047203063964844 163.43655395507812 -163.44358825683594 7.428686618804932 137.1009063720703 -36.383705139160156 -44.192630767822266 35.54338073730469 -87.63748931884766 -35.35426330566406 122.36873626708984 138.93370056152344 -35.89567947387695 -167.89743041992188 -51.798675537109375 71.00346374511719 23.174144744873047 -10.457350730895996 -49.748313903808594 42.95791244506836 -141.84228515625 -10.387588500976562 -6.549347877502441 177.92860412597656 51.019264221191406 89.52062225341797 -144.3157196044922 34.9188346862793 -30.734241485595703 -99.91407012939453 -25.544788360595703 38.98919677734375 -73.28362274169922 44.93115997314453 64.44884490966797 -15.928007125854492 -76.4167251586914 16.985849380493164 -133.6304473876953 54.48111343383789 -16.476119995117188 1.4655958414077759 -20.027433395385742 119.23670959472656
78.11814523328192 -0.0026629600232983895 -24.79022847523046 45.84864044189453 47.7495002746582 145.8307342529297 -158.923095703125 -36.629337310791016 -151.12509155273438 149.4373016357422 -50.2570915222168 -131.05967712402344 -67.9859619140625 -36.94379806518555 -174.2689208984375 34.139591217041016 -39.800350189208984 86.95304870605469 10.83038330078125 -37.35184097290039 70.40299987792969 49.545013427734375 -29.285888671875 76.36442565917969 53.30471420288086 24.65645408630371 133.41656494140625 78.814453125 -26.4979248046875 -30.777448654174805 46.38017654418945 38.35110855102539 -20.91790771484375 -18.645282745361328 19.832679748535156 -176.00787353515625 -0.0722750648856163 -26.14728355407715 -77.13880157470703 48.90116882324219 -22.622539520263672 -114.81131744384766 -114.04148864746094 -5.202057361602783 -4.759712219238281 -7.484435558319092 42.5565071105957 3.4260473251342773 -56.36478805541992 -7.575747489929199 -51.76603698730469 -27.283788681030273 35.927818298339844 39.102149963378906 -22.999149322509766 28.52151870727539 -121.38029479980469 176.73402404785156 17.838916778564453 -141.88807678222656 178.6741943359375 -66.99287414550781 -143.4813995361328 113.89856719970703 16.47705841064453 30.952014923095703 -81.85062408447266 58.289310455322266 67.86115264892578 -171.99827575683594 31.660869598388672 -160.6492156982422 119.86837768554688 86.66850280761719 24.428997039794922 -142.37771606445312 22.211509704589844 131.7415771484375 35.72700500488281 41.0646858215332 40.8219108581543 156.8314971923828 -25.18390655517578 145.92263793945312 -103.52781677246094 15.950331687927246 102.23483276367188 -176.6816864013672 -60.90836715698242 163.8076629638672 -162.08094787597656 8.230088233947754 136.54330444335938 -37.09668731689453 -44.08771896362305 35.07646560668945 -92.08682250976562 -35.729156494140625 122.98578643798828 138.6160888671875 -35.511844635009766 -168.15194702148438 -49.47611999511719 71.06704711914062 21.722902297973633 -9.869675636291504 -49.78326416015625 43.43271255493164 -144.10186767578125 -8.788166046142578 -7.369387626647949 175.74549865722656 51.74558639526367 89.6254653930664 -144.65777587890625 35.0234375 -29.340007781982422 -101.37118530273438 -25.615633010864258 38.7231559753418 -73.88323974609375 45.24092483520508 64.40907287597656 -19.71697998046875 -77.0141830444336 14.469411849975586 -134.02622985839844 54.56674575805664 -16.456886291503906 1.2413631677627563 -20.805522918701172 118.78286743164062
79.57883348092498 -0.0452300196119269 -25.228697564960882 46.11240768432617 46.414920806884766 144.24688720703125 -159.5076904296875 -35.79462432861328 -151.6458282470703 129.74859619140625 -48.681827545166016 -160.356201171875 -67.66719818115234 -36.81135940551758 -174.3912353515625 35.20969009399414 -39.28194046020508 87.97899627685547 12.043547630310059 -40.66120147705078 69.95864868164062 50.078880310058594 -28.909955978393555 75.17892456054688 55.73591232299805 23.718231201171875 133.61199951171875 78.91321563720703 -28.45186424255371 -29.509532928466797 48.81678009033203 36.198089599609375 -21.399505615234375 -20.03264808654785 20.476104736328125 -175.9361572265625 -1.7244545221328735 -25.084871292114258 -79.59740447998047 48.603302001953125 -21.703960418701172 -115.37506103515625 -116.2999496459961 -6.058390140533447 -5.941156387329102 -7.317001819610596 43.16333770751953 2.6689233779907227 -57.26019287109375 -7.920891284942627 -51.745811462402344 -26.684316635131836 37.673500061035156 38.406402587890625 -21.389677047729492 30.360742568969727 -120.64413452148438 173.96975708007812 17.74462890625 -140.11251831054688 -178.42596435546875 -67.32381439208984 -138.85777282714844 112.84038543701172 16.4218692779541 30.90108871459961 -84.2337646484375 57.28299331665039 70.43964385986328 -173.50375366210938 31.121768951416016 -161.58152770996094 112.70814514160156 86.7030029296875 32.094818115234375 -144.03253173828125 20.907146453857422 131.7920379638672 35.79264831542969 40.86695861816406 40.314178466796875 154.66773986816406 -24.821392059326172 145.2696533203125 -103.24198913574219 17.10816764831543 102.98282623291016 -175.0757293701172 -62.75278854370117 162.98690795898438 -160.12303161621094 9.408614158630371 135.70431518554688 -39.479000091552734 -43.73644256591797 33.691810607910156 -95.99423217773438 -35.951820373535156 122.89389038085938 138.44517517089844 -35.86367416381836 -168.74855041503906 -43.96752166748047 70.20445251464844 15.388401985168457 -10.013108253479004 -51.973777770996094 42.02996826171875 -148.06539916992188 -7.509765148162842 -7.6877241134643555 175.00135803222656 53.030853271484375 88.62968444824219 -144.03147888183594 34.841163635253906 -26.76079559326172 -103.32939147949219 -25.219375610351562 38.456787109375 -73.6888198852539 44.67909622192383 63.98788070678711 -25.39678955078125 -78.88846588134766 12.33694076538086 -134.62106323242188 55.61357879638672 -15.680788040161133 0.8580687642097473 -21.914432525634766 118.51963806152344
